<?xml version="1.0" encoding="UTF-8"?>
<!DOCTYPE svg PUBLIC "-//W3C//DTD SVG 1.1//EN" "http://www.w3.org/Graphics/SVG/1.1/DTD/svg11.dtd">
<!-- Creator: CorelDRAW -->
<svg xmlns="http://www.w3.org/2000/svg" xml:space="preserve" width="6.7733mm" height="6.7734mm" version="1.1" style="shape-rendering:geometricPrecision; text-rendering:geometricPrecision; image-rendering:optimizeQuality; fill-rule:evenodd; clip-rule:evenodd"
viewBox="0 0 677.34 677.35"
 xmlns:xlink="http://www.w3.org/1999/xlink"
 xmlns:xodm="http://www.corel.com/coreldraw/odm/2003">
 <defs>
  <style type="text/css">
   <![CDATA[
    .fil0 {fill:none}
    .fil1 {fill:url(#id0);fill-rule:nonzero}
   ]]>
  </style>
  <linearGradient id="id0" gradientUnits="userSpaceOnUse" x1="335.41" y1="673.67" x2="335.41" y2="0.2">
   <stop offset="0" style="stop-opacity:1; stop-color:#00F28E"/>
   <stop offset="1" style="stop-opacity:1; stop-color:#009FFD"/>
  </linearGradient>
 </defs>
 <g id="Layer_x0020_1">
  <metadata id="CorelCorpID_0Corel-Layer"/>
  <g id="_1255029325216">
   <rect class="fil0" x="-0.01" y="0.01" width="677.34" height="677.34"/>
   <path class="fil1" d="M506.26 0c15.58,0 29.68,6.48 39.9,16.96 10.2,10.46 16.53,24.94 16.53,40.93 0,15.98 -6.33,30.45 -16.53,40.92 -10.22,10.47 -24.32,16.95 -39.9,16.95 -15.57,0 -29.69,-6.48 -39.9,-16.95 -10.21,-10.47 -16.52,-24.94 -16.52,-40.92 0,-15.99 6.31,-30.47 16.52,-40.93 10.21,-10.48 24.32,-16.96 39.9,-16.96zm-396.4 636.68c0.57,1.84 0.88,3.81 0.88,5.84 0,10.74 -8.49,19.45 -18.96,19.45 -10.46,0 -18.96,-8.71 -18.96,-19.45 0,-5.46 2.2,-10.39 5.73,-13.92l-33.5 -14.92c-5.51,-2.46 -9.52,-6.97 -11.55,-12.27 -2.04,-5.28 -2.1,-11.37 0.28,-17l71.94 -169.95c2.39,-5.65 6.79,-9.77 11.97,-11.85 5.13,-2.09 11.06,-2.16 16.54,0.29l49.77 22.17c2.54,1.13 4.76,2.69 6.61,4.57l38.76 -87.26c-1.18,-1.69 -2.24,-3.48 -3.13,-5.35 -5.05,-10.76 -4.65,-23.91 5.65,-35.31l68.55 -75.87 0.01 0.02c4.72,-5.36 8.88,-10.02 13.58,-14.19 4.89,-4.31 10.26,-8.06 17.22,-11.35l78.51 -45 0 -0.01c8.44,-5.01 17.23,-9.52 25.4,-12.55 7.43,-2.75 14.42,-4.27 20.33,-3.87l82.18 5.58c5.24,0.36 9.89,2.82 13.14,6.54 3.27,3.71 5.15,8.68 4.88,14.07l-4.98 97.54 80.52 56.72c12.65,8.91 15.91,21.92 13.26,33.74 -1,4.46 -2.87,8.74 -5.42,12.52 -2.55,3.8 -5.78,7.1 -9.48,9.62 -9.71,6.58 -22.47,7.96 -34.86,-0.95l-47.96 -34.52 -2.45 47.71 55.74 67.77 0.08 2.58 5.49 184.4c0.48,16.27 -9.42,27.14 -22.11,32.12 -4.46,1.76 -9.34,2.76 -14.22,2.96 -4.89,0.21 -9.78,-0.39 -14.28,-1.83 -11.92,-3.82 -21.2,-13.15 -21.6,-28.52l-4.33 -167.43 -50.54 -46.03 -24.81 -0.4 -7.34 46.69 -89.83 171.71c-7.49,14.33 -21.37,18.68 -34.76,16.5 -4.78,-0.77 -9.49,-2.39 -13.77,-4.7 -4.37,-2.34 -8.32,-5.37 -11.52,-8.92 -8.47,-9.41 -11.96,-22.25 -4.85,-35.72l85.48 -161.89 17.81 -75.09 7.46 -146.03 -49.74 28.51 -72.7 82.11c-10.31,11.64 -23.31,13.17 -34.36,8.88 -1.79,-0.68 -3.51,-1.54 -5.16,-2.51l-45.23 101.81 -0.01 0 -71.89 169.83c-2.39,5.63 -6.79,9.76 -11.96,11.85 -0.49,0.21 -1,0.38 -1.51,0.55l0 0.01zm330.19 -208.25l-33.95 -31.94c-5.18,21.89 -10.38,43.77 -15.57,65.65l-86.3 163.46c-3.71,7.02 -1.78,13.83 2.79,18.9 2.1,2.33 4.71,4.33 7.59,5.88 2.95,1.58 6.16,2.7 9.38,3.22 7.86,1.27 15.88,-1.07 20.03,-9.01l88.7 -169.59 7.34 -46.57 -0.01 0zm-30.73 -48.77l41.21 38.78 33.51 0.54 59.1 53.83 4.51 173.81c0.21,7.94 5.2,12.84 11.6,14.89 2.97,0.94 6.21,1.34 9.49,1.2 3.29,-0.14 6.6,-0.82 9.7,-2.04 7.41,-2.91 13.22,-9.06 12.96,-18.05l-5.43 -181.8 -56.05 -68.18 0 -2.65 0.02 -0.37 3.94 -76.98 0 0 2.17 -42.57 0 0 5.4 -105.7c0.07,-1.35 -0.42,-2.6 -1.24,-3.56 -0.86,-0.97 -2.08,-1.62 -3.45,-1.72l-56.91 -3.85c2.26,3.44 3.83,7.24 4.67,11.2 1.26,5.93 0.86,12.22 -1.34,18.2 -2.97,8.11 -9.23,15.58 -19.16,20.69l-0.19 0.11 -46.74 22.19c-2.59,50.66 -5.15,101.36 -7.77,152.04l0 -0.01zm140.5 -99.9l-2.18 42.76 55.29 39.79c6.78,4.88 13.63,4.21 18.78,0.72 2.19,-1.49 4.11,-3.46 5.64,-5.72 1.52,-2.27 2.64,-4.83 3.24,-7.48 1.42,-6.39 -0.4,-13.46 -7.4,-18.4l-73.37 -51.68 0 0.01zm-367.54 168.64l0.02 -0.07c0.73,-1.85 0.67,-3.89 -0.02,-5.67 -0.7,-1.83 -2.07,-3.38 -3.91,-4.2l-49.77 -22.17c-1.87,-0.83 -3.92,-0.79 -5.73,-0.06 -1.79,0.72 -3.29,2.12 -4.09,4.02l-71.95 169.95c-0.81,1.92 -0.77,4.03 -0.05,5.88 0.7,1.83 2.05,3.38 3.9,4.2l49.78 22.17c1.86,0.83 3.92,0.79 5.73,0.06 1.78,-0.73 3.29,-2.11 4.09,-4.01l71.94 -169.96 0.06 -0.14 0 0zm275.59 -256.25l0.01 0.01c6.3,-3.3 10.2,-7.85 11.97,-12.68 1.2,-3.27 1.42,-6.71 0.72,-9.97 -0.68,-3.27 -2.29,-6.35 -4.73,-8.88 -3.6,-3.75 -9.05,-6.36 -16.14,-6.84 -2.92,0.47 -6.22,1.41 -9.73,2.72 -7.2,2.67 -15.21,6.79 -23.07,11.46l-0.11 0.06 -78.83 45.18 -0.51 0.26c-5.7,2.68 -10.11,5.73 -14.09,9.26 -4.22,3.72 -8.05,8.04 -12.43,13l-0.05 0.08 -68.56 75.87c-5.64,6.24 -5.91,13.29 -3.24,18.98 1.14,2.43 2.78,4.64 4.77,6.5 2,1.88 4.32,3.38 6.79,4.32 5.97,2.33 13.06,1.42 18.8,-5.05l74.2 -83.81 114.23 -60.47zm78.2 -164.84c-7.63,-7.81 -18.16,-12.65 -29.8,-12.65 -11.64,0 -22.17,4.84 -29.81,12.65 -7.61,7.82 -12.33,18.64 -12.33,30.58 0,11.93 4.72,22.74 12.33,30.56 7.64,7.82 18.17,12.66 29.81,12.66 11.64,0 22.17,-4.84 29.8,-12.66 7.62,-7.82 12.34,-18.63 12.34,-30.56 0,-11.94 -4.72,-22.76 -12.34,-30.58z"/>
  </g>
 </g>
</svg>
