<?xml version="1.0" encoding="UTF-8"?>
<!DOCTYPE svg PUBLIC "-//W3C//DTD SVG 1.1//EN" "http://www.w3.org/Graphics/SVG/1.1/DTD/svg11.dtd">
<!-- Creator: CorelDRAW -->
<svg xmlns="http://www.w3.org/2000/svg" xml:space="preserve" width="10.8373mm" height="10.8371mm" version="1.1" style="shape-rendering:geometricPrecision; text-rendering:geometricPrecision; image-rendering:optimizeQuality; fill-rule:evenodd; clip-rule:evenodd"
viewBox="0 0 1083.72 1083.7"
 xmlns:xlink="http://www.w3.org/1999/xlink"
 xmlns:xodm="http://www.corel.com/coreldraw/odm/2003">
 <defs>
  <style type="text/css">
   <![CDATA[
    .fil3 {fill:none}
    .fil0 {fill:#007BFF}
    .fil4 {fill:#89B1E3}
    .fil7 {fill:#B5D2F6}
    .fil2 {fill:#BCDCFE}
    .fil6 {fill:#D0E6FF}
    .fil1 {fill:#D5E6F6}
    .fil5 {fill:#E9F1FA}
   ]]>
  </style>
   <clipPath id="id0">
    <path d="M369.62 1028.53c46.12,-0.12 174.24,6.2 210.31,-2.84 48.14,-12.09 84.69,-71.08 105.51,-117.83 22.66,-50.8 41.21,-115.07 52.88,-176.23 6.07,-31.8 11.65,-66.7 14.96,-100.36 3.5,-35.46 -3.09,-79.7 22.29,-90.93 -3.37,-17.05 -16.22,-28.83 -31.89,-32.23 4.27,6.54 10.74,11.37 10.97,24.55 0.68,37.32 -34.35,30.03 -65.94,30.03l-252.16 0c-131.15,0 -161.48,-37.38 -119.69,246.65 5.54,37.7 12.62,78.09 21.89,114.02 6.59,25.55 29.31,87.12 30.87,105.17z"/>
   </clipPath>
   <clipPath id="id1">
    <path d="M369.62 1028.53c-1.56,-18.05 -24.28,-79.62 -30.87,-105.17 -9.27,-35.93 -16.35,-76.32 -21.89,-114.02 -41.79,-284.03 -11.46,-246.65 119.69,-246.65l252.16 0c31.59,0 66.62,7.29 65.94,-30.03 -0.23,-13.18 -6.7,-18.01 -10.97,-24.55 -13.54,-9.11 -74.97,-3.07 -96.59,-3.07 -4.46,35.91 -32.05,27.27 -64.85,27.27l-434.26 0c-82.19,0 -104.58,-18.95 -95.75,80.46 9.07,102.16 34.96,222.8 72.83,302.27 65.27,136.94 115,113.45 244.56,113.49z"/>
   </clipPath>
 </defs>
 <g id="Layer_x0020_1">
  <metadata id="CorelCorpID_0Corel-Layer"/>
  <path class="fil0" d="M733.5 926.73c3.02,-14.21 7.49,-22.05 12.44,-35.6 17.36,-47.46 22.11,-67.03 34.07,-119.53 12.13,-53.2 15.29,-80.7 21.98,-132.84 1.63,-12.73 4.35,-36.43 4.35,-47.54 111.45,10.19 121.6,134.08 91.33,217.29 -40.04,110.09 -152.05,111.83 -164.17,118.22zm42.03 -386.4c-25.38,11.22 -18.79,55.47 -22.28,90.93 -3.32,33.66 -8.9,68.55 -14.96,100.36 -11.68,61.16 -30.22,125.43 -52.88,176.23 -20.82,46.74 -57.37,105.74 -105.51,117.82 -36.07,9.05 -164.2,2.73 -210.31,2.84 -129.56,-0.03 -179.29,23.45 -244.56,-113.48 -37.87,-79.47 -63.77,-200.11 -72.83,-302.27 -8.83,-99.42 13.56,-80.46 95.74,-80.46l434.27 0c32.8,0 60.39,8.64 64.85,-27.28 -2.8,-38.22 -47.93,-27.71 -101.27,-27.71l-378.24 0c-39.24,0 -89.28,-5.67 -119.42,7.32 -61.45,26.46 -48.42,100.14 -43.58,147.15 15.02,146.21 59.38,354.8 175.32,432.24 28.66,19.14 62.92,19.67 108.16,19.67 84.04,0 168.11,-0.2 252.15,0 48.39,0.13 69.85,-6.97 99.79,-28.88 24.27,-17.76 49.83,-45.93 62.72,-72.7 299.7,0 320.69,-359.74 166.16,-431.86 -28.65,-13.37 -62.39,-17 -93.32,-9.92z"/>
  <g id="_1254154308752">
  </g>
  <g>
  </g>
  <g style="clip-path:url(#id0)">
   <g id="_1254154308464">
    <polygon class="fil1" points="-2951.8,-2743.01 4026.67,-2743.01 4026.67,4281.71 -2951.8,4281.71 "/>
    <path id="_1" class="fil2" d="M733.5 926.73c3.02,-14.21 7.49,-22.05 12.44,-35.6 17.36,-47.46 22.11,-67.03 34.07,-119.53 12.13,-53.2 15.29,-80.7 21.98,-132.84 1.63,-12.73 4.35,-36.43 4.35,-47.54 111.45,10.19 121.6,134.08 91.33,217.29 -40.04,110.09 -152.05,111.83 -164.17,118.22zm42.03 -386.4c-25.38,11.22 -18.79,55.47 -22.28,90.93 -3.32,33.66 -8.9,68.55 -14.96,100.36 -11.68,61.16 -30.22,125.43 -52.88,176.23 -20.82,46.74 -57.37,105.74 -105.51,117.82 -36.07,9.05 -164.2,2.73 -210.31,2.84 -129.56,-0.03 -179.29,23.45 -244.56,-113.48 -37.87,-79.47 -63.77,-200.11 -72.83,-302.27 -8.83,-99.42 13.56,-80.46 95.74,-80.46l434.27 0c32.8,0 60.39,8.64 64.85,-27.28 -2.8,-38.22 -47.93,-27.71 -101.27,-27.71l-378.24 0c-39.24,0 -89.28,-5.67 -119.42,7.32 -61.45,26.46 -48.42,100.14 -43.58,147.15 15.02,146.21 59.38,354.8 175.32,432.24 28.66,19.14 62.92,19.67 108.16,19.67 84.04,0 168.11,-0.2 252.15,0 48.39,0.13 69.85,-6.97 99.79,-28.88 24.27,-17.76 49.83,-45.93 62.72,-72.7 299.7,0 320.69,-359.74 166.16,-431.86 -28.65,-13.37 -62.39,-17 -93.32,-9.92z"/>
   </g>
  </g>
  <path class="fil3" d="M369.62 1028.53c46.12,-0.12 174.24,6.2 210.31,-2.84 48.14,-12.09 84.69,-71.08 105.51,-117.83 22.66,-50.8 41.21,-115.07 52.88,-176.23 6.07,-31.8 11.65,-66.7 14.96,-100.36 3.5,-35.46 -3.09,-79.7 22.29,-90.93 -3.37,-17.05 -16.22,-28.83 -31.89,-32.23 4.27,6.54 10.74,11.37 10.97,24.55 0.68,37.32 -34.35,30.03 -65.94,30.03l-252.16 0c-131.15,0 -161.48,-37.38 -119.69,246.65 5.54,37.7 12.62,78.09 21.89,114.02 6.59,25.55 29.31,87.12 30.87,105.17z"/>
  <path class="fil3" d="M369.62 1028.53c46.12,-0.12 174.24,6.2 210.31,-2.84 48.14,-12.09 84.69,-71.08 105.51,-117.83 22.66,-50.8 41.21,-115.07 52.88,-176.23 6.07,-31.8 11.65,-66.7 14.96,-100.36 3.5,-35.46 -3.09,-79.7 22.29,-90.93 -3.37,-17.05 -16.22,-28.83 -31.89,-32.23 4.27,6.54 10.74,11.37 10.97,24.55 0.68,37.32 -34.35,30.03 -65.94,30.03l-252.16 0c-131.15,0 -161.48,-37.38 -119.69,246.65 5.54,37.7 12.62,78.09 21.89,114.02 6.59,25.55 29.31,87.12 30.87,105.17z"/>
  <path class="fil4" d="M369.62 1028.53c46.12,-0.12 174.24,6.2 210.31,-2.84 48.14,-12.09 84.69,-71.08 105.51,-117.83 22.66,-50.8 41.21,-115.07 52.88,-176.23 6.07,-31.8 11.65,-66.7 14.96,-100.36 3.5,-35.46 -3.09,-79.7 22.29,-90.93 -3.37,-17.05 -16.22,-28.83 -31.89,-32.23 4.27,6.54 10.74,11.37 10.97,24.55 0.68,37.32 -34.35,30.03 -65.94,30.03l-252.16 0c-131.15,0 -161.48,-37.38 -119.69,246.65 5.54,37.7 12.62,78.09 21.89,114.02 6.59,25.55 29.31,87.12 30.87,105.17z"/>
  <g id="_1254154281008">
  </g>
  <g>
  </g>
  <g style="clip-path:url(#id1)">
   <g id="_1254154282880">
    <polygon class="fil5" points="-3200.71,-2748.05 4005.77,-2748.05 4005.77,4281.18 -3200.71,4281.18 "/>
    <path id="_1_2" class="fil6" d="M733.5 926.73c3.02,-14.21 7.49,-22.05 12.44,-35.6 17.36,-47.46 22.11,-67.03 34.07,-119.53 12.13,-53.2 15.29,-80.7 21.98,-132.84 1.63,-12.73 4.35,-36.43 4.35,-47.54 111.45,10.19 121.6,134.08 91.33,217.29 -40.04,110.09 -152.05,111.83 -164.17,118.22zm42.03 -386.4c-25.38,11.22 -18.79,55.47 -22.28,90.93 -3.32,33.66 -8.9,68.55 -14.96,100.36 -11.68,61.16 -30.22,125.43 -52.88,176.23 -20.82,46.74 -57.37,105.74 -105.51,117.82 -36.07,9.05 -164.2,2.73 -210.31,2.84 -129.56,-0.03 -179.29,23.45 -244.56,-113.48 -37.87,-79.47 -63.77,-200.11 -72.83,-302.27 -8.83,-99.42 13.56,-80.46 95.74,-80.46l434.27 0c32.8,0 60.39,8.64 64.85,-27.28 -2.8,-38.22 -47.93,-27.71 -101.27,-27.71l-378.24 0c-39.24,0 -89.28,-5.67 -119.42,7.32 -61.45,26.46 -48.42,100.14 -43.58,147.15 15.02,146.21 59.38,354.8 175.32,432.24 28.66,19.14 62.92,19.67 108.16,19.67 84.04,0 168.11,-0.2 252.15,0 48.39,0.13 69.85,-6.97 99.79,-28.88 24.27,-17.76 49.83,-45.93 62.72,-72.7 299.7,0 320.69,-359.74 166.16,-431.86 -28.65,-13.37 -62.39,-17 -93.32,-9.92z"/>
    <path class="fil3" d="M369.62 1028.53c46.12,-0.12 174.24,6.2 210.31,-2.84 48.14,-12.09 84.69,-71.08 105.51,-117.83 22.66,-50.8 41.21,-115.07 52.88,-176.23 6.07,-31.8 11.65,-66.7 14.96,-100.36 3.5,-35.46 -3.09,-79.7 22.29,-90.93 -3.37,-17.05 -16.22,-28.83 -31.89,-32.23 4.27,6.54 10.74,11.37 10.97,24.55 0.68,37.32 -34.35,30.03 -65.94,30.03l-252.16 0c-131.15,0 -161.48,-37.38 -119.69,246.65 5.54,37.7 12.62,78.09 21.89,114.02 6.59,25.55 29.31,87.12 30.87,105.17z"/>
   </g>
  </g>
  <path class="fil3" d="M369.62 1028.53c-1.56,-18.05 -24.28,-79.62 -30.87,-105.17 -9.27,-35.93 -16.35,-76.32 -21.89,-114.02 -41.79,-284.03 -11.46,-246.65 119.69,-246.65l252.16 0c31.59,0 66.62,7.29 65.94,-30.03 -0.23,-13.18 -6.7,-18.01 -10.97,-24.55 -13.54,-9.11 -74.97,-3.07 -96.59,-3.07 -4.46,35.91 -32.05,27.27 -64.85,27.27l-434.26 0c-82.19,0 -104.58,-18.95 -95.75,80.46 9.07,102.16 34.96,222.8 72.83,302.27 65.27,136.94 115,113.45 244.56,113.49z"/>
  <path class="fil3" d="M369.62 1028.53c-1.56,-18.05 -24.28,-79.62 -30.87,-105.17 -9.27,-35.93 -16.35,-76.32 -21.89,-114.02 -41.79,-284.03 -11.46,-246.65 119.69,-246.65l252.16 0c31.59,0 66.62,7.29 65.94,-30.03 -0.23,-13.18 -6.7,-18.01 -10.97,-24.55 -13.54,-9.11 -74.97,-3.07 -96.59,-3.07 -4.46,35.91 -32.05,27.27 -64.85,27.27l-434.26 0c-82.19,0 -104.58,-18.95 -95.75,80.46 9.07,102.16 34.96,222.8 72.83,302.27 65.27,136.94 115,113.45 244.56,113.49z"/>
  <path class="fil7" d="M369.62 1028.53c-1.56,-18.05 -24.28,-79.62 -30.87,-105.17 -9.27,-35.93 -16.35,-76.32 -21.89,-114.02 -41.79,-284.03 -11.46,-246.65 119.69,-246.65l252.16 0c31.59,0 66.62,7.29 65.94,-30.03 -0.23,-13.18 -6.7,-18.01 -10.97,-24.55 -13.54,-9.11 -74.97,-3.07 -96.59,-3.07 -4.46,35.91 -32.05,27.27 -64.85,27.27l-434.26 0c-82.19,0 -104.58,-18.95 -95.75,80.46 9.07,102.16 34.96,222.8 72.83,302.27 65.27,136.94 115,113.45 244.56,113.49z"/>
  <path class="fil0" d="M627.04 421.95c54.48,0 -4.37,-73.59 67.13,-114.02 38.98,-22.06 96.11,-23.84 149.01,-30.2l80.92 -6.53c43.43,-4.08 100.88,-16.85 131.02,-49.97 14.94,-16.42 25.31,-44.16 28.6,-70.22l0 -32.51c-2.93,-18.71 -11.75,-32.06 -28.01,-32.06 -56.92,0 28.28,90.3 -86.23,120.73 -116.54,30.98 -330.49,-11.91 -362.78,140.1 -5.29,24.98 -10.15,74.68 20.34,74.68z"/>
  <path class="fil0" d="M674.67 24.88c0,28.37 31.37,43.82 -52.64,105.29 -25.96,19 -50.46,38.03 -75.1,59.1 -56.06,47.91 -108.15,134.73 -87.25,213.39 7.12,26.83 38.07,23.84 47.06,4 9.3,-20.51 -12.76,-39.07 13.82,-101.69 42.34,-99.75 224.41,-151.23 210.73,-255.91 -10.01,-76.68 -56.62,-45.96 -56.62,-24.18z"/>
 </g>
</svg>
