<?xml version="1.0" encoding="UTF-8"?>
<!DOCTYPE svg PUBLIC "-//W3C//DTD SVG 1.1//EN" "http://www.w3.org/Graphics/SVG/1.1/DTD/svg11.dtd">
<!-- Creator: CorelDRAW -->
<svg xmlns="http://www.w3.org/2000/svg" xml:space="preserve" width="6.7733mm" height="6.7733mm" version="1.1" style="shape-rendering:geometricPrecision; text-rendering:geometricPrecision; image-rendering:optimizeQuality; fill-rule:evenodd; clip-rule:evenodd"
viewBox="0 0 677.32 677.32"
 xmlns:xlink="http://www.w3.org/1999/xlink"
 xmlns:xodm="http://www.corel.com/coreldraw/odm/2003">
 <defs>
  <style type="text/css">
   <![CDATA[
    .fil0 {fill:none}
    .fil1 {fill:url(#id0);fill-rule:nonzero}
   ]]>
  </style>
  <linearGradient id="id0" gradientUnits="userSpaceOnUse" x1="337.73" y1="677.25" x2="337.73" y2="0.02">
   <stop offset="0" style="stop-opacity:1; stop-color:#01A7E8"/>
   <stop offset="1" style="stop-opacity:1; stop-color:#14FCCF"/>
  </linearGradient>
 </defs>
 <g id="Layer_x0020_1">
  <metadata id="CorelCorpID_0Corel-Layer"/>
  <g id="_2355938625264">
   <rect class="fil0" x="-0" y="-0" width="677.32" height="677.32"/>
   <path class="fil1" d="M164.13 0.01l349.06 0c9.72,0 18.57,3.98 24.97,10.38 6.4,6.4 10.38,15.24 10.38,24.97l0 606.62c0,9.73 -3.98,18.57 -10.38,24.97 -6.4,6.4 -15.25,10.37 -24.97,10.37l-349.06 0c-9.73,0 -18.56,-3.97 -24.97,-10.37 -6.39,-6.4 -10.37,-15.24 -10.37,-24.97l0 -46.76 0 -559.87c0,-9.73 3.98,-18.57 10.37,-24.97 6.41,-6.4 15.24,-10.38 24.97,-10.38l0 0.01zm-18.46 586.78l350.63 0c4.66,0 8.44,3.77 8.44,8.43 0,4.66 -3.78,8.44 -8.44,8.44l-350.63 0 0 38.32c0,5.07 2.08,9.68 5.43,13.04 3.35,3.35 7.96,5.43 13.03,5.43l349.06 0c5.07,0 9.69,-2.08 13.04,-5.43 3.35,-3.36 5.43,-7.97 5.43,-13.04l0 -549.14 -349.85 0c-4.66,0 -8.43,-3.78 -8.43,-8.44 0,-4.66 3.77,-8.43 8.43,-8.43l349.85 0 0 -40.61c0,-5.07 -2.08,-9.68 -5.43,-13.04 -3.35,-3.36 -7.97,-5.44 -13.04,-5.44l-349.06 0c-5.07,0 -9.68,2.08 -13.03,5.44 -3.35,3.36 -5.43,7.97 -5.43,13.04l0 551.44 0 -0.01zm181.96 54.87c-4.66,0 -8.44,-3.78 -8.44,-8.44 0,-4.66 3.78,-8.43 8.44,-8.43l22.1 0c4.66,0 8.44,3.77 8.44,8.43 0,4.66 -3.78,8.44 -8.44,8.44l-22.1 0zm141.39 -216.32c0,4.66 -3.78,8.44 -8.44,8.44 -4.66,0 -8.44,-3.78 -8.44,-8.44l0 -52.33 -224.3 0 0 52.33c0,4.66 -3.78,8.44 -8.44,8.44 -4.66,0 -8.43,-3.78 -8.43,-8.44l0 -60.77 0 -107.05c0,-4.66 3.77,-8.43 8.43,-8.43 4.66,0 8.44,3.77 8.44,8.43l0 98.61 232.75 0c4.66,0 8.44,3.78 8.44,8.44l0 60.77 -0.01 0zm-214.4 -101.36c-4.66,0 -8.44,-3.78 -8.44,-8.44 0,-4.66 3.78,-8.44 8.44,-8.44l22.09 0c4.66,0 8.44,3.78 8.44,8.44 0,4.66 -3.78,8.44 -8.44,8.44l-22.09 0zm51.57 0c-4.66,0 -8.44,-3.78 -8.44,-8.44 0,-4.66 3.78,-8.44 8.44,-8.44l154.38 0c4.66,0 8.44,3.78 8.44,8.44 0,4.66 -3.78,8.44 -8.44,8.44l-154.38 0zm-19.53 -264.17c-4.66,0 -8.44,-3.78 -8.44,-8.44 0,-4.66 3.78,-8.44 8.44,-8.44l104.02 0c4.66,0 8.44,3.78 8.44,8.44 0,4.66 -3.78,8.44 -8.44,8.44l-104.02 0z"/>
  </g>
 </g>
</svg>
