<?xml version="1.0" encoding="UTF-8"?>
<!DOCTYPE svg PUBLIC "-//W3C//DTD SVG 1.1//EN" "http://www.w3.org/Graphics/SVG/1.1/DTD/svg11.dtd">
<!-- Creator: CorelDRAW -->
<svg xmlns="http://www.w3.org/2000/svg" xml:space="preserve" width="6.7733mm" height="6.7733mm" version="1.1" style="shape-rendering:geometricPrecision; text-rendering:geometricPrecision; image-rendering:optimizeQuality; fill-rule:evenodd; clip-rule:evenodd"
viewBox="0 0 677.32 677.32"
 xmlns:xlink="http://www.w3.org/1999/xlink"
 xmlns:xodm="http://www.corel.com/coreldraw/odm/2003">
 <defs>
  <style type="text/css">
   <![CDATA[
    .fil0 {fill:none}
    .fil1 {fill:url(#id0)}
   ]]>
  </style>
  <linearGradient id="id0" gradientUnits="userSpaceOnUse" x1="54.34" y1="332.59" x2="622.99" y2="332.59">
   <stop offset="0" style="stop-opacity:1; stop-color:#00F28E"/>
   <stop offset="1" style="stop-opacity:1; stop-color:#009FFE"/>
  </linearGradient>
 </defs>
 <g id="Layer_x0020_1">
  <metadata id="CorelCorpID_0Corel-Layer"/>
  <g id="_2319377974128">
   <rect class="fil0" x="-0" y="-0" width="677.32" height="677.32"/>
   <path class="fil1" d="M206.05 189.78l0 -16.21c0,-35.75 21.11,-69.08 39.41,-87.36 50.52,-50.49 135.98,-50.22 186.52,-0.01 18.23,18.12 39.4,51.83 39.4,87.37 0,37.91 -4.6,55.78 -25.32,86.7 -3.04,4.54 -11.03,13.54 -15.31,17.12 -6.72,5.63 -10.14,9.56 -17.71,14.73 -4.03,2.76 -6.11,3.39 -10.31,5.9 -35.33,21.11 -77.95,21.1 -116.26,5.91 -8.64,-3.42 -13.59,-6.93 -21.02,-11.41 -8.35,-5.03 -11.18,-8.86 -17.94,-14.48 -18.92,-15.75 -41.46,-53.84 -41.46,-88.26zm132.65 266.79c67.46,0 124.13,20.9 173.73,57.68l18.27 15.64c7,6.13 23.23,28.41 29.12,37.21 15.05,22.49 21.22,47.18 24.65,74.12 1.82,14.3 -1.81,18.29 6.58,27.31 16.19,17.39 36.6,5.96 40.69,-8.91 6.55,-23.83 -10.01,-81.43 -24.14,-104.92 -17.29,-28.73 -30.81,-50.01 -59.78,-72.89l-18.35 -14.08c-20.9,-15.08 -40.29,-25.3 -65.06,-35.17 -110.16,-43.94 -240.75,-26.47 -334.02,48.6 -16.59,13.35 -35.5,33.6 -47.3,51.46 -2.48,3.75 -4.19,6.12 -6.5,9.71 -2.64,4.08 -3.91,7.45 -6.24,11.45 -14.44,24.84 -31.56,80.89 -24.7,105.84 2.36,8.59 7.78,13.69 16.2,16.37 10.81,3.44 17.5,-0.26 23.75,-6.72 10.57,-10.92 4.45,-23.4 11.7,-54.63 5.39,-23.2 18.56,-47.79 33.09,-65.68 16.56,-20.39 30.09,-32.52 52.64,-47.59 41.24,-27.57 100.54,-44.8 155.66,-44.8l0.01 0zm-181.3 -275.64c0,36.75 12.16,75.86 31.56,102.57 20.44,28.15 39.14,44.79 70.64,60.56 48.54,24.31 108.74,24.81 157.22,0.49 34.04,-17.08 25.16,-15.1 45.48,-31.17l16 -16.43c3.42,-4.01 6.39,-8.4 9.51,-12.6 6.28,-8.46 11.21,-18.57 16,-28.22 21.51,-43.33 21.21,-105.93 0,-148.93 -9.65,-19.56 -20.97,-37.98 -36.5,-53.42 -22.61,-22.47 -54.16,-41.6 -86.95,-48.65 -41.07,-8.83 -74.96,-6.73 -114.32,10.27 -18.63,8.05 -40.17,22.46 -54.48,36.91 -28.45,28.74 -54.16,72.09 -54.16,128.62z"/>
  </g>
 </g>
</svg>
